<?xml version="1.0" encoding="utf-8"?>
<!-- Generator: Adobe Illustrator 27.2.0, SVG Export Plug-In . SVG Version: 6.00 Build 0)  -->
<svg version="1.1" id="Layer_1" xmlns="http://www.w3.org/2000/svg" xmlns:xlink="http://www.w3.org/1999/xlink" x="0px" y="0px"
	 viewBox="0 0 100 100" style="enable-background:new 0 0 100 100;" xml:space="preserve">
<style type="text/css">
	.st0{fill:#B52523;}
	.st1{fill:#F9F9F9;}
	.st2{fill:#EFEFEF;}
	.st3{fill:#E0E0E0;}
	.st4{fill:#D62D2D;}
	.st5{fill:#FFFFFF;}
</style>
<g id="Layer_1_00000181078806645647512490000000399908725410389172_">
	<g>
		<polygon class="st0" points="9.8,75.2 16.8,82.2 25.6,73.3 12.5,69.8 		"/>
	</g>
	<g>
		<g>
			<path class="st1" d="M75.3,6.1H45.8L16,38.1v44.7c0,6.1,4.6,11.1,10.4,11.1h48.8c5.7,0,10.4-5,10.4-11.1V17.2
				C85.6,11.1,81,6.1,75.3,6.1z"/>
			<path class="st2" d="M75.2,94.9H26.4c-6.3,0-11.4-5.4-11.4-12.1V37.7L45.4,5.1h29.9c6.2,0,11.3,5.4,11.3,12.1v65.6
				C86.6,89.5,81.5,94.9,75.2,94.9z M17,38.5v44.3c0,5.6,4.2,10.1,9.4,10.1h48.8c5.2,0,9.4-4.5,9.4-10.1V17.2
				c0-5.6-4.2-10.1-9.3-10.1H46.2L17,38.5z"/>
		</g>
	</g>
	<g>
		<g>
			<path class="st3" d="M45.3,29.8V5L15,37.9h22.2C41.7,37.9,45.3,34.3,45.3,29.8z"/>
		</g>
	</g>
	<g>
		<path class="st4" d="M61.6,77.2h-48c-2.5,0-4.5-1.9-4.5-4.2V52.7c0-3.1,2.7-5.6,6-5.6h51.7c4.2,0,7.1,3.9,5.6,7.6l-5.2,19
			C66.3,75.8,64.1,77.2,61.6,77.2z"/>
	</g>
</g>
<g id="Layer_2_00000129183484094241948570000003091676465317147009_">
	<g>
		<path class="st5" d="M32.4,61.2c-0.3,0.6-0.9,1.1-1.6,1.5s-1.7,0.6-2.8,0.6h-2.3v5.2H23V55h5c1.1,0,1.9,0.2,2.7,0.5
			s1.3,0.9,1.7,1.5s0.6,1.4,0.6,2.2C32.9,59.9,32.7,60.6,32.4,61.2z M29.5,60.7c0.4-0.3,0.5-0.8,0.5-1.5c0-1.3-0.7-2-2.2-2h-2.2v4
			h2.2C28.6,61.2,29.2,61,29.5,60.7z"/>
		<path class="st5" d="M43.3,55.8c1.1,0.6,1.9,1.4,2.5,2.4s0.9,2.2,0.9,3.6c0,1.4-0.3,2.6-0.9,3.6c-0.6,1-1.4,1.8-2.5,2.4
			s-2.3,0.8-3.8,0.8h-4.7V55h4.7C41,55,42.2,55.3,43.3,55.8z M42.8,65.1c0.8-0.8,1.2-1.9,1.2-3.3c0-1.4-0.4-2.5-1.2-3.3
			s-1.9-1.2-3.3-1.2h-1.9v9h1.9C40.9,66.3,42,65.9,42.8,65.1z"/>
		<path class="st5" d="M57.1,55v2.2h-5.7v3.5h4.3v2.2h-4.3v5.7h-2.7V55H57.1z"/>
	</g>
</g>
</svg>
