<?xml version="1.0" encoding="utf-8"?>
<!-- Generator: Adobe Illustrator 27.2.0, SVG Export Plug-In . SVG Version: 6.00 Build 0)  -->
<svg version="1.1" id="Layer_1" xmlns="http://www.w3.org/2000/svg" xmlns:xlink="http://www.w3.org/1999/xlink" x="0px" y="0px"
	 viewBox="0 0 100 100" style="enable-background:new 0 0 100 100;" xml:space="preserve">
<style type="text/css">
	.st0{fill:#2975AB;}
	.st1{fill:#F9F9F9;}
	.st2{fill:#EFEFEF;}
	.st3{fill:#E0E0E0;}
	.st4{fill:#2E8CCC;}
	.st5{fill:#FFFFFF;}
</style>
<g id="Layer_1_00000017484232519171520240000001221282750962927764_">
	<g>
		<polygon class="st0" points="9.8,75.2 16.8,82.2 25.6,73.3 12.5,69.8 		"/>
	</g>
	<g>
		<g>
			<path class="st1" d="M75.3,6.1H45.8L16,38.1v44.7c0,6.1,4.6,11.1,10.4,11.1h48.8c5.7,0,10.4-5,10.4-11.1V17.2
				C85.6,11.1,81,6.1,75.3,6.1z"/>
			<path class="st2" d="M75.2,94.9H26.4c-6.3,0-11.4-5.4-11.4-12.1V37.7L45.4,5.1h29.9c6.2,0,11.3,5.4,11.3,12.1v65.6
				C86.6,89.5,81.5,94.9,75.2,94.9z M17,38.5v44.3c0,5.6,4.2,10.1,9.4,10.1h48.8c5.2,0,9.4-4.5,9.4-10.1V17.2
				c0-5.6-4.2-10.1-9.3-10.1H46.2L17,38.5z"/>
		</g>
	</g>
	<g>
		<g>
			<path class="st3" d="M45.3,29.8V5L15,37.9h22.2C41.7,37.9,45.3,34.3,45.3,29.8z"/>
		</g>
	</g>
	<g>
		<path class="st4" d="M61.6,77.2h-48c-2.5,0-4.5-1.9-4.5-4.2V52.7c0-3.1,2.7-5.6,6-5.6h51.7c4.2,0,7.1,3.9,5.6,7.6l-5.2,19
			C66.3,75.8,64.1,77.2,61.6,77.2z"/>
	</g>
</g>
<g id="Layer_2_00000021816453662471066070000002535726703004786835_">
	<g>
		<path class="st5" d="M29.9,61.2c-0.3,0.6-0.9,1.1-1.6,1.5s-1.7,0.6-2.8,0.6h-2.3v5.2h-2.7V55h5c1.1,0,1.9,0.2,2.7,0.5
			s1.3,0.9,1.7,1.5c0.4,0.6,0.6,1.4,0.6,2.2C30.4,59.9,30.2,60.6,29.9,61.2z M27,60.7c0.4-0.3,0.5-0.8,0.5-1.5c0-1.3-0.7-2-2.2-2
			h-2.2v4h2.2C26.1,61.2,26.7,61,27,60.7z"/>
		<path class="st5" d="M43.9,68.6h-2.7L35,59.3v9.3h-2.7V55H35l6.2,9.3V55h2.7V68.6z"/>
		<path class="st5" d="M56.1,59.1c-0.3-0.6-0.7-1-1.3-1.3c-0.5-0.3-1.2-0.4-1.9-0.4c-0.8,0-1.5,0.2-2.1,0.5s-1.1,0.9-1.5,1.6
			c-0.4,0.7-0.5,1.5-0.5,2.3c0,0.9,0.2,1.7,0.5,2.4c0.3,0.7,0.9,1.2,1.5,1.6s1.4,0.5,2.2,0.5c1,0,1.9-0.3,2.6-0.8
			c0.7-0.6,1.1-1.3,1.3-2.3h-4.7V61h7.4v2.4c-0.2,0.9-0.6,1.8-1.2,2.6c-0.6,0.8-1.4,1.5-2.3,1.9c-0.9,0.5-2,0.7-3.2,0.7
			c-1.3,0-2.5-0.3-3.6-0.9s-1.9-1.4-2.5-2.5s-0.9-2.2-0.9-3.6c0-1.3,0.3-2.5,0.9-3.6s1.4-1.9,2.5-2.5s2.2-0.9,3.5-0.9
			c1.5,0,2.9,0.4,4,1.1c1.1,0.7,1.9,1.8,2.3,3.1h-3V59.1z"/>
	</g>
</g>
</svg>
