<?xml version="1.0" encoding="utf-8"?>
<!-- Generator: Adobe Illustrator 27.2.0, SVG Export Plug-In . SVG Version: 6.00 Build 0)  -->
<svg version="1.1" id="Layer_1" xmlns="http://www.w3.org/2000/svg" xmlns:xlink="http://www.w3.org/1999/xlink" x="0px" y="0px"
	 viewBox="0 0 100 100" style="enable-background:new 0 0 100 100;" xml:space="preserve">
<style type="text/css">
	.st0{fill:#ED1C24;}
</style>
<g>
	<path class="st0" d="M50,95.1C25.1,95.1,4.9,74.9,4.9,50C4.9,25.1,25.1,4.9,50,4.9S95.1,25.1,95.1,50C95.1,74.9,74.9,95.1,50,95.1z
		 M50,8.9C27.3,8.9,8.9,27.3,8.9,50c0,22.7,18.4,41.1,41.1,41.1c22.7,0,41.1-18.4,41.1-41.1C91.1,27.3,72.7,8.9,50,8.9z"/>
</g>
<path class="st0" d="M52.8,50l19.8-19.8c0.8-0.8,0.8-2,0-2.8c-0.8-0.8-2-0.8-2.8,0L50,47.2L30.2,27.4c-0.8-0.8-2-0.8-2.8,0
	c-0.8,0.8-0.8,2,0,2.8L47.2,50L27.4,69.8c-0.8,0.8-0.8,2,0,2.8c0.4,0.4,0.9,0.6,1.4,0.6s1-0.2,1.4-0.6L50,52.8l19.8,19.8
	c0.4,0.4,0.9,0.6,1.4,0.6s1-0.2,1.4-0.6c0.8-0.8,0.8-2,0-2.8L52.8,50z"/>
</svg>
