<svg width="79" height="87" viewBox="0 0 79 87" fill="none" xmlns="http://www.w3.org/2000/svg">
<path d="M43.6999 30.7207C43.6999 28.8886 41.7369 27.3182 39.3813 27.3182C37.0257 27.3182 35.0627 28.8886 35.0627 30.7207V37.7874V42.8912C35.0627 44.7233 37.0257 46.2937 39.3813 46.2937C41.7369 46.2937 43.6999 44.7233 43.6999 42.8912V37.7874V30.7207Z" fill="#7C52BF"/>
<path d="M54.4309 27.3182H48.5419V43.022C48.5419 47.0789 44.3542 50.3505 39.3813 50.3505C34.2776 50.3505 30.2207 47.0789 30.2207 43.022V27.3182H26.9491H19.228V43.022C19.228 51.9209 28.2577 59.1185 39.3813 59.1185C50.5049 59.1185 59.5346 51.9209 59.5346 43.022V27.3182H54.4309Z" fill="#7C52BF"/>
<path d="M39.3813 22.7379H19.4897C16.349 22.7379 14.7786 19.0736 17.1342 17.1107L24.8552 10.5674L35.7171 1.27594C37.6801 -0.425313 40.69 -0.425313 42.7838 1.27594L53.6456 10.5674L61.3667 17.1107C63.7223 19.0736 62.1519 22.7379 59.0111 22.7379H39.3813Z" fill="#7C52BF"/>
<path d="M0 67.4633C0 66.1234 1.17239 65.1185 2.62393 65.1185C4.07546 65.1185 5.24786 66.1234 5.24786 67.4633C5.24786 68.8032 4.07546 69.8639 2.62393 69.8639C1.17239 69.8639 0 68.859 0 67.4633ZM5.1362 86.5007C3.51718 86.724 1.95399 86.7799 0.446626 86.6682C0.390797 86.1658 0.334969 84.5467 0.334969 81.7553V73.1019C1.67485 72.4878 3.34969 72.2645 4.96872 71.8179V81.7553C4.96872 84.1559 5.02454 85.8308 5.1362 86.5007Z" fill="#7C52BF"/>
<path d="M7.42517 79.6897C7.42517 74.8884 10.8865 71.7621 15.3528 71.7621C17.2509 71.7621 18.7583 72.3203 19.4282 72.7111C19.4841 73.9952 19.1491 75.3909 18.5908 76.8983C18.0884 76.34 16.8601 75.5584 15.4086 75.5584C13.343 75.5584 12.0589 77.0658 12.0589 79.2431C12.0589 81.6437 13.6779 82.9277 15.7994 82.9277C17.4184 82.9277 18.9258 82.202 19.4841 81.6995C19.6516 82.7602 19.4282 83.9885 19.1491 85.3283C18.3117 86.1099 16.6368 86.9474 14.3479 86.9474C10.3282 86.9474 7.42517 84.1001 7.42517 79.6897Z" fill="#7C52BF"/>
<path d="M20.9914 79.8572C20.9914 75.3351 24.3969 71.8179 28.8632 71.8179C32.9386 71.8179 35.8975 74.721 35.8975 78.9081C35.8975 83.4302 32.492 86.9474 28.0258 86.9474C23.9503 86.9474 20.9914 84.0443 20.9914 79.8572ZM31.208 79.4105C31.208 77.0099 29.9797 75.6142 28.3607 75.6142C26.6859 75.6142 25.6251 77.1216 25.6251 79.3547C25.6251 81.7553 26.7975 83.151 28.3607 83.151C30.0914 83.151 31.208 81.6437 31.208 79.4105Z" fill="#7C52BF"/>
<path d="M52.1995 81.7553C52.1995 84.6026 52.3111 86.0541 52.4228 86.3891C50.9154 86.6682 49.3522 86.7799 47.6774 86.7799C47.6215 86.4449 47.5657 84.8259 47.5657 81.7553V78.0707C47.5657 76.675 46.8958 75.8934 45.7234 75.8934C44.0485 75.8934 42.7086 77.4565 42.7086 79.7455V81.7553C42.7086 84.1559 42.8203 85.8866 42.8761 86.5007C41.2571 86.724 39.6939 86.7799 38.1866 86.6682C38.1307 86.1658 38.0749 84.5467 38.0749 81.7553V78.2381C38.0749 75.8934 37.7958 74.1069 37.5724 72.9903C38.7448 72.4878 40.1406 72.2087 41.5363 71.8737C41.8712 72.7111 42.2062 73.8277 42.4853 75.2792C43.3228 72.9903 45.3326 71.8179 47.5657 71.8179C50.4688 71.8179 52.1995 73.7719 52.1995 77.3449V81.7553Z" fill="#7C52BF"/>
<path d="M59.178 86.9474C57.3915 86.9474 55.8841 86.5566 55.1584 86.2216C54.6559 84.8817 54.4884 83.486 54.6001 81.9786C55.4933 82.6486 57.3357 83.486 59.2897 83.486C60.5179 83.486 61.3553 83.0952 61.3553 82.4253C61.3553 81.6437 60.4062 81.3087 58.9547 80.7504C57.4473 80.1363 55.0467 79.2431 55.0467 76.4516C55.0467 73.6602 57.3915 71.8179 61.3553 71.8179C62.9743 71.8179 64.4817 72.1529 65.2075 72.432C65.2075 73.4927 64.9283 74.721 64.37 76.005C63.8117 75.6142 62.5835 75.0559 61.2436 75.0559C60.1829 75.0559 59.4571 75.3351 59.4571 76.005C59.4571 76.7308 60.4062 77.1216 61.8019 77.6799C63.3651 78.294 65.7657 79.2431 65.7657 82.0345C65.8216 84.8259 63.3651 86.9474 59.178 86.9474Z" fill="#7C52BF"/>
<path d="M77.9362 85.7191C77.2663 86.2774 75.8148 86.9473 73.9724 86.9473C71.6276 86.9473 68.9479 85.775 68.9479 81.867V75.9492H66.8264C66.9939 74.7768 67.273 73.6044 67.273 72.4878L69.3387 72.097L69.7853 69.1381C70.9019 68.6357 72.2418 68.4124 73.5258 68.0774V72.4878H78.1595C78.1595 73.6044 77.8246 74.8326 77.7129 75.9492H73.5258V80.6388C73.5258 82.4811 74.5865 82.9835 75.5356 82.9835C76.6522 82.9835 77.7129 82.4811 78.2712 82.0903C78.4945 83.151 78.2712 84.3234 77.9362 85.7191Z" fill="#7C52BF"/>
</svg>
