<svg width="188" height="46" viewBox="0 0 188 46" fill="none" xmlns="http://www.w3.org/2000/svg">
<path d="M21.8 23.7C21.8 22.3 20.3 21.1 18.5 21.1C16.7 21.1 15.2 22.3 15.2 23.7V29.1V33C15.2 34.4 16.7 35.6 18.5 35.6C20.3 35.6 21.8 34.4 21.8 33V29.1V23.7Z" fill="#7C52BF"/>
<path d="M30 21.1H25.5V33.1C25.5 36.2 22.3 38.7 18.5 38.7C14.6 38.7 11.5 36.2 11.5 33.1V21.1H9H3.1V33.1C3.1 39.9 10 45.4 18.5 45.4C27 45.4 33.9 39.9 33.9 33.1V21.1H30Z" fill="#7C52BF"/>
<path d="M18.5 17.6H3.3C0.899998 17.6 -0.300002 14.8 1.5 13.3L7.4 8.30001L15.7 1.20001C17.2 -0.0999939 19.5 -0.0999939 21.1 1.20001L29.4 8.30001L35.3 13.3C37.1 14.8 35.9 17.6 33.5 17.6H18.5Z" fill="#7C52BF"/>
<path d="M46.9 7.40001C46.9 5.00001 49 3.20001 51.6 3.20001C54.2 3.20001 56.3 5.00001 56.3 7.40001C56.3 9.80001 54.2 11.7 51.6 11.7C49 11.7 46.9 9.90001 46.9 7.40001ZM56.1 41.5C53.2 41.9 50.4 42 47.7 41.8C47.6 40.9 47.5 38 47.5 33V17.5C49.9 16.4 52.9 16 55.8 15.2V33C55.8 37.3 55.9 40.3 56.1 41.5Z" fill="#7C52BF"/>
<path d="M60.2 29.3C60.2 20.7 66.4 15.1 74.4 15.1C77.8 15.1 80.5 16.1 81.7 16.8C81.8 19.1 81.2 21.6 80.2 24.3C79.3 23.3 77.1 21.9 74.5 21.9C70.8 21.9 68.5 24.6 68.5 28.5C68.5 32.8 71.4 35.1 75.2 35.1C78.1 35.1 80.8 33.8 81.8 32.9C82.1 34.8 81.7 37 81.2 39.4C79.7 40.8 76.7 42.3 72.6 42.3C65.4 42.3 60.2 37.2 60.2 29.3Z" fill="#7C52BF"/>
<path d="M84.5 29.6C84.5 21.5 90.6 15.2 98.6 15.2C105.9 15.2 111.2 20.4 111.2 27.9C111.2 36 105.1 42.3 97.1 42.3C89.8 42.3 84.5 37.1 84.5 29.6ZM102.8 28.8C102.8 24.5 100.6 22 97.7 22C94.7 22 92.8 24.7 92.8 28.7C92.8 33 94.9 35.5 97.7 35.5C100.8 35.5 102.8 32.8 102.8 28.8Z" fill="#7C52BF"/>
<path d="M140.4 33C140.4 38.1 140.6 40.7 140.8 41.3C138.1 41.8 135.3 42 132.3 42C132.2 41.4 132.1 38.5 132.1 33V26.4C132.1 23.9 130.9 22.5 128.8 22.5C125.8 22.5 123.4 25.3 123.4 29.4V33C123.4 37.3 123.6 40.4 123.7 41.5C120.8 41.9 118 42 115.3 41.8C115.2 40.9 115.1 38 115.1 33V26.7C115.1 22.5 114.6 19.3 114.2 17.3C116.3 16.4 118.8 15.9 121.3 15.3C121.9 16.8 122.5 18.8 123 21.4C124.5 17.3 128.1 15.2 132.1 15.2C137.3 15.2 140.4 18.7 140.4 25.1V33Z" fill="#7C52BF"/>
<path d="M152.9 42.3C149.7 42.3 147 41.6 145.7 41C144.8 38.6 144.5 36.1 144.7 33.4C146.3 34.6 149.6 36.1 153.1 36.1C155.3 36.1 156.8 35.4 156.8 34.2C156.8 32.8 155.1 32.2 152.5 31.2C149.8 30.1 145.5 28.5 145.5 23.5C145.5 18.5 149.7 15.2 156.8 15.2C159.7 15.2 162.4 15.8 163.7 16.3C163.7 18.2 163.2 20.4 162.2 22.7C161.2 22 159 21 156.6 21C154.7 21 153.4 21.5 153.4 22.7C153.4 24 155.1 24.7 157.6 25.7C160.4 26.8 164.7 28.5 164.7 33.5C164.8 38.5 160.4 42.3 152.9 42.3Z" fill="#7C52BF"/>
<path d="M186.5 40.1C185.3 41.1 182.7 42.3 179.4 42.3C175.2 42.3 170.4 40.2 170.4 33.2V22.6H166.6C166.9 20.5 167.4 18.4 167.4 16.4L171.1 15.7L171.9 10.4C173.9 9.5 176.3 9.1 178.6 8.5V16.4H186.9C186.9 18.4 186.3 20.6 186.1 22.6H178.6V31C178.6 34.3 180.5 35.2 182.2 35.2C184.2 35.2 186.1 34.3 187.1 33.6C187.5 35.5 187.1 37.6 186.5 40.1Z" fill="#7C52BF"/>
</svg>
