<svg width="12" height="12" viewBox="0 0 12 12" fill="none" xmlns="http://www.w3.org/2000/svg">
<path d="M10.9441 8.47799V9.97799C10.9446 10.1172 10.9161 10.2551 10.8603 10.3827C10.8045 10.5103 10.7227 10.6248 10.6201 10.7189C10.5175 10.8131 10.3963 10.8847 10.2644 10.9293C10.1325 10.974 9.99274 10.9905 9.85406 10.978C8.31548 10.8108 6.83756 10.2851 5.53906 9.44299C4.33097 8.67533 3.30673 7.65108 2.53906 6.44299C1.69405 5.1386 1.16818 3.65349 1.00406 2.10799C0.991564 1.96973 1.008 1.83037 1.05231 1.69881C1.09662 1.56724 1.16784 1.44634 1.26144 1.3438C1.35504 1.24127 1.46896 1.15935 1.59595 1.10325C1.72295 1.04716 1.86023 1.01812 1.99906 1.01799H3.49906C3.74171 1.0156 3.97695 1.10153 4.16094 1.25976C4.34492 1.41799 4.4651 1.63772 4.49906 1.87799C4.56237 2.35803 4.67978 2.82936 4.84906 3.28299C4.91633 3.46195 4.93089 3.65645 4.89101 3.84343C4.85113 4.03042 4.75849 4.20205 4.62406 4.33799L3.98906 4.97299C4.70084 6.22477 5.73729 7.26122 6.98906 7.97299L7.62406 7.33799C7.76 7.20356 7.93164 7.11092 8.11862 7.07104C8.3056 7.03116 8.5001 7.04572 8.67906 7.11299C9.13269 7.28227 9.60403 7.39968 10.0841 7.46299C10.3269 7.49726 10.5488 7.6196 10.7073 7.80674C10.8659 7.99388 10.9501 8.23278 10.9441 8.47799Z" stroke="#7C52BF" stroke-width="0.75" stroke-linecap="round" stroke-linejoin="round"/>
</svg>
