<svg width="18" height="16" viewBox="0 0 18 16" fill="none" xmlns="http://www.w3.org/2000/svg">
<path fill-rule="evenodd" clip-rule="evenodd" d="M5.75877 2.0144C5.21353 1.71149 5.21342 1.7117 5.2133 1.71191L5.21254 1.71328L5.21138 1.7154L5.20857 1.72056L5.20114 1.73458C5.19545 1.74549 5.18825 1.75965 5.18007 1.77659C5.16388 1.81009 5.14286 1.85645 5.12165 1.91168C5.08341 2.01125 5.02615 2.186 5.02375 2.38455C5.02125 2.59234 5.08346 2.91622 5.38986 3.13418C5.66139 3.32733 5.98882 3.33452 6.26155 3.29615C7.43542 3.14504 8.19976 3.34071 8.64978 3.54208C8.78043 3.60055 8.88716 3.66064 8.97182 3.71522L8.78675 4.23146L8.78448 4.23792C8.58449 4.81565 8.61356 5.28724 8.73659 5.64185C8.79624 5.81378 8.87391 5.94636 8.94291 6.04136C8.97736 6.08879 9.00974 6.12699 9.03686 6.15631C9.04826 6.16863 9.05878 6.17943 9.06818 6.18873L9.94693 7.13641L9.95469 7.14462C10.4503 7.66005 10.8968 7.90997 11.2765 8.00661C11.4655 8.05474 11.6286 8.06224 11.76 8.05082C11.825 8.04517 11.8808 8.035 11.9267 8.02367C11.9309 8.02263 11.935 8.02158 11.9391 8.02052L12.4356 7.94108L12.6819 8.21814C12.6724 8.28571 12.6665 8.35963 12.6665 8.4391C12.6665 8.83851 12.8153 9.31253 13.2583 9.76724C13.4578 9.97196 13.6888 10.1552 13.9648 10.2537C14.2614 10.3595 14.5579 10.3491 14.8389 10.2495C15.0996 10.1572 15.3331 9.9935 15.5437 9.81423C15.7575 9.63215 15.9825 9.40333 16.2223 9.14573C16.3366 9.02306 16.442 8.91313 16.5396 8.81165C16.5522 8.79856 16.5648 8.78555 16.5772 8.77262C16.6599 8.68681 16.7389 8.60472 16.8097 8.52895C16.9628 8.36507 17.1282 8.17873 17.2357 7.97651C17.3613 7.74008 17.419 7.46212 17.3294 7.15727C17.2537 6.89934 17.088 6.68398 16.9299 6.50672C16.5889 6.12434 16.2678 5.90925 15.998 5.79265C15.8639 5.73473 15.7465 5.70288 15.6511 5.68616C15.6035 5.67783 15.5619 5.67334 15.5269 5.67116C15.5094 5.67007 15.4936 5.66956 15.4796 5.66943L15.469 5.66946L15.1461 5.66944L14.9088 5.43831L14.9586 5.19637C15.0635 4.79853 15.1042 4.42103 14.9718 4.04781C14.8462 3.69394 14.5904 3.43226 14.3731 3.21501L14.3642 3.20605L12.1099 1.1279L12.1001 1.11954C10.8165 0.0311115 9.28037 -0.0623047 8.03039 0.198811C7.40422 0.329618 6.8321 0.551798 6.367 0.798797C5.91441 1.03915 5.51716 1.32752 5.2779 1.61716L5.24138 1.66137L5.2133 1.71191L5.75877 2.0144ZM6.77297 2.00113C7.81888 1.95768 8.60172 2.15393 9.15929 2.40343C9.49241 2.55249 9.73789 2.71733 9.90602 2.85234C9.98998 2.91975 10.0545 2.97959 10.1009 3.02614C10.1242 3.04942 10.1429 3.0694 10.1573 3.08537L10.1757 3.10623L10.1826 3.11426L10.1854 3.11763L10.1866 3.11916C10.1869 3.11951 10.1878 3.12058 9.70571 3.51633L10.1878 3.12058L10.4122 3.39392L9.96226 4.64899C9.84918 4.9775 9.8898 5.15994 9.91513 5.23297C9.92817 5.27054 9.9425 5.29418 9.9499 5.30498L10.8577 6.28392C11.2332 6.67338 11.4839 6.77217 11.5842 6.7977C11.6048 6.80295 11.6208 6.80557 11.6321 6.80685L11.6343 6.80597L12.9137 6.60126L14.1341 7.97417L13.9287 8.34174C13.9282 8.34314 13.9276 8.34479 13.927 8.34667C13.9217 8.3638 13.914 8.3961 13.914 8.4391C13.914 8.50686 13.9312 8.67029 14.1518 8.89669C14.2841 9.03252 14.3587 9.06977 14.3841 9.0788C14.3847 9.07904 14.3853 9.07933 14.3859 9.07964C14.3894 9.08153 14.3938 9.08381 14.4224 9.07366C14.4761 9.05467 14.5744 9.00116 14.735 8.86444C14.8922 8.73052 15.0776 8.54456 15.3093 8.29569C15.4309 8.16513 15.5422 8.04911 15.6409 7.94655C15.6539 7.93302 15.6667 7.91978 15.6792 7.90681C15.7627 7.82008 15.8343 7.74567 15.8981 7.67742C15.998 7.57047 16.0579 7.49965 16.0937 7.45198C16.0733 7.42434 16.0431 7.38653 15.9989 7.33705C15.7637 7.07324 15.5869 6.97397 15.5032 6.93777C15.4749 6.92556 15.4551 6.9196 15.4446 6.91689H14.6391L13.5492 5.85566L13.744 4.90937L13.7488 4.89157C13.8324 4.58016 13.8058 4.49202 13.7962 4.46497C13.7779 4.41343 13.7291 4.33588 13.4998 4.10589L11.2838 2.06299C10.386 1.30749 9.28925 1.21022 8.28548 1.41991C7.78302 1.52487 7.32146 1.70437 6.95209 1.90053C6.88838 1.93437 6.82867 1.96802 6.77297 2.00113Z" fill="#7C52BF"/>
<path fill-rule="evenodd" clip-rule="evenodd" d="M1.27257 12.3454L9.09658 5.30557L9.93097 6.2329L2.06502 13.3105L2.04482 13.3251C2.04422 13.3256 2.04348 13.3262 2.04261 13.327C2.03639 13.3322 2.02443 13.3426 2.00943 13.3575C1.97777 13.389 1.94208 13.4313 1.91508 13.4786C1.87266 13.5531 1.84798 13.6292 1.92246 13.7652L1.92805 13.7754L1.93327 13.7859C1.96429 13.8479 2.04591 13.9406 2.34018 14.2348C2.34016 14.2348 2.3402 14.2349 2.34018 14.2348L2.34163 14.2363L2.3491 14.2436L2.38039 14.2739C2.40793 14.3002 2.44686 14.3368 2.49175 14.3769C2.58879 14.4636 2.68506 14.5412 2.74895 14.5807C2.884 14.6627 2.97592 14.6804 3.03748 14.6748C3.08513 14.6705 3.20473 14.6453 3.38763 14.438L3.39338 14.4315L10.4141 6.69484L11.3379 7.53314L4.31995 15.2668C3.97962 15.6512 3.58509 15.878 3.14941 15.9173C2.72655 15.9553 2.36481 15.8073 2.09894 15.6455L2.09636 15.6439C1.9332 15.5435 1.7681 15.4032 1.66054 15.3071C1.60283 15.2555 1.55335 15.2091 1.51812 15.1754C1.50043 15.1584 1.48612 15.1445 1.47594 15.1345L1.46379 15.1226L1.46017 15.119L1.45901 15.1178C1.44385 15.1027 1.42779 15.0867 1.41234 15.0713C1.19698 14.8566 0.958354 14.6187 0.823151 14.3549C0.502429 13.7611 0.625976 13.2211 0.831325 12.8609C0.928763 12.6899 1.04261 12.5597 1.12938 12.4734C1.17359 12.4294 1.21307 12.3945 1.24349 12.3691C1.25429 12.3601 1.26404 12.3522 1.27257 12.3454Z" fill="#7C52BF"/>
</svg>
