<svg width="23" height="23" viewBox="0 0 23 23" fill="none" xmlns="http://www.w3.org/2000/svg">
<g clip-path="url(#clip0_22_329)">
<path fill-rule="evenodd" clip-rule="evenodd" d="M12.7032 2.33739C12.3496 1.13708 10.6505 1.13708 10.2968 2.33739L10.1617 2.79595C10.0481 3.18112 9.8497 3.536 9.58114 3.83457C9.31258 4.13315 8.98064 4.36788 8.60962 4.52155C8.2386 4.67522 7.8379 4.74395 7.43687 4.72271C7.03585 4.70146 6.64466 4.59078 6.29195 4.39876L5.8722 4.16876C4.77395 3.5722 3.5722 4.77251 4.1702 5.8722L4.39876 6.29195C4.59078 6.64466 4.70146 7.03585 4.72271 7.43687C4.74395 7.8379 4.67522 8.2386 4.52155 8.60962C4.36788 8.98064 4.13315 9.31258 3.83457 9.58114C3.536 9.8497 3.18112 10.0481 2.79595 10.1617L2.33739 10.2968C1.13708 10.6505 1.13708 12.3496 2.33739 12.7032L2.79595 12.8383C3.18132 12.9519 3.53639 13.1503 3.83512 13.419C4.13385 13.6876 4.36867 14.0197 4.52236 14.3909C4.67605 14.7621 4.74472 15.163 4.72334 15.5642C4.70195 15.9654 4.59105 16.3568 4.39876 16.7095L4.16876 17.1278C3.5722 18.2261 4.77251 19.4278 5.8722 18.8298L6.29195 18.6013C6.64475 18.4093 7.03604 18.2986 7.43714 18.2775C7.83825 18.2563 8.239 18.3252 8.61004 18.479C8.98108 18.6328 9.31301 18.8677 9.58149 19.1664C9.84998 19.4652 10.0482 19.8202 10.1617 20.2055L10.2968 20.6626C10.6505 21.863 12.3496 21.863 12.7032 20.6626L12.8383 20.2041C12.9519 19.8187 13.1503 19.4636 13.419 19.1649C13.6876 18.8662 14.0197 18.6314 14.3909 18.4777C14.7621 18.324 15.163 18.2553 15.5642 18.2767C15.9654 18.2981 16.3568 18.409 16.7095 18.6013L17.1278 18.8313C18.2261 19.4278 19.4278 18.2275 18.8298 17.1278L18.6013 16.7095C18.409 16.3567 18.2982 15.9652 18.2769 15.564C18.2556 15.1627 18.3244 14.7617 18.4782 14.3905C18.632 14.0193 18.867 13.6872 19.1659 13.4186C19.4648 13.15 19.82 12.9518 20.2055 12.8383L20.6626 12.7032C21.863 12.3496 21.863 10.6505 20.6626 10.2968L20.2041 10.1617C19.8189 10.0481 19.464 9.8497 19.1655 9.58114C18.8669 9.31258 18.6322 8.98064 18.4785 8.60962C18.3248 8.2386 18.2561 7.8379 18.2773 7.43687C18.2986 7.03585 18.4092 6.64466 18.6013 6.29195L18.8313 5.8722C19.4278 4.77395 18.2275 3.5722 17.1278 4.1702L16.7095 4.39876C16.3567 4.59132 15.9652 4.70244 15.5639 4.72396C15.1625 4.74549 14.7614 4.67688 14.39 4.52317C14.0186 4.36946 13.6864 4.13454 13.4176 3.83566C13.1489 3.53678 12.9504 3.18152 12.8369 2.79595L12.7032 2.33739ZM8.91826 1.93058C9.67583 -0.642549 13.3242 -0.642549 14.0818 1.93058L14.2169 2.38914C14.2698 2.56876 14.3622 2.73426 14.4874 2.87352C14.6126 3.01277 14.7673 3.12225 14.9403 3.19393C15.1133 3.2656 15.3001 3.29766 15.4871 3.28775C15.6741 3.27783 15.8565 3.2262 16.021 3.13664L16.4407 2.90664C18.7982 1.62439 21.3771 4.20183 20.092 6.55933L19.8634 6.97908C19.7738 7.14352 19.7222 7.32591 19.7123 7.5129C19.7024 7.69988 19.7344 7.88672 19.8061 8.0597C19.8778 8.23269 19.9873 8.38745 20.1265 8.51262C20.2658 8.6378 20.4313 8.73023 20.6109 8.78314L21.0695 8.91826C23.6426 9.67583 23.6426 13.3242 21.0695 14.0818L20.6109 14.2169C20.4313 14.2698 20.2658 14.3622 20.1265 14.4874C19.9873 14.6126 19.8778 14.7673 19.8061 14.9403C19.7344 15.1133 19.7024 15.3001 19.7123 15.4871C19.7222 15.6741 19.7738 15.8565 19.8634 16.021L20.0934 16.4407C21.3771 18.7982 18.7968 21.3771 16.4407 20.092L16.021 19.8634C15.8565 19.7738 15.6741 19.7222 15.4871 19.7123C15.3001 19.7024 15.1133 19.7344 14.9403 19.8061C14.7673 19.8778 14.6126 19.9873 14.4874 20.1265C14.3622 20.2658 14.2698 20.4313 14.2169 20.6109L14.0818 21.0695C13.3242 23.6426 9.67583 23.6426 8.91826 21.0695L8.78314 20.6109C8.73023 20.4313 8.6378 20.2658 8.51262 20.1265C8.38745 19.9873 8.23269 19.8778 8.0597 19.8061C7.88672 19.7344 7.69988 19.7024 7.5129 19.7123C7.32591 19.7222 7.14352 19.7738 6.97908 19.8634L6.55933 20.0934C4.20183 21.3771 1.62439 18.7968 2.90808 16.4407L3.13664 16.021C3.2262 15.8565 3.27783 15.6741 3.28775 15.4871C3.29766 15.3001 3.2656 15.1133 3.19393 14.9403C3.12225 14.7673 3.01277 14.6126 2.87352 14.4874C2.73426 14.3622 2.56876 14.2698 2.38914 14.2169L1.93058 14.0818C-0.642549 13.3242 -0.642549 9.67583 1.93058 8.91826L2.38914 8.78314C2.56876 8.73023 2.73426 8.6378 2.87352 8.51262C3.01277 8.38745 3.12225 8.23269 3.19393 8.0597C3.2656 7.88672 3.29766 7.69988 3.28775 7.5129C3.27783 7.32591 3.2262 7.14352 3.13664 6.97908L2.90664 6.55933C1.62439 4.20183 4.20326 1.62439 6.55933 2.90808L6.97908 3.13664C7.14352 3.2262 7.32591 3.27783 7.5129 3.28775C7.69988 3.29766 7.88672 3.2656 8.0597 3.19393C8.23269 3.12225 8.38745 3.01277 8.51262 2.87352C8.6378 2.73426 8.73023 2.56876 8.78314 2.38914L8.91826 1.93058Z" fill="#878787"/>
<path fill-rule="evenodd" clip-rule="evenodd" d="M11.5001 8.27136C10.6438 8.27136 9.82261 8.61152 9.21713 9.21701C8.61164 9.82249 8.27148 10.6437 8.27148 11.5C8.27148 12.3563 8.61164 13.1775 9.21713 13.783C9.82261 14.3885 10.6438 14.7286 11.5001 14.7286C12.3564 14.7286 13.1776 14.3885 13.7831 13.783C14.3886 13.1775 14.7287 12.3563 14.7287 11.5C14.7287 10.6437 14.3886 9.82249 13.7831 9.21701C13.1776 8.61152 12.3564 8.27136 11.5001 8.27136ZM6.83398 11.5C6.83398 10.8872 6.95468 10.2805 7.18917 9.71434C7.42367 9.14822 7.76737 8.63383 8.20066 8.20054C8.63395 7.76725 9.14834 7.42355 9.71446 7.18905C10.2806 6.95456 10.8873 6.83386 11.5001 6.83386C12.1129 6.83386 12.7196 6.95456 13.2858 7.18905C13.8519 7.42355 14.3663 7.76725 14.7996 8.20054C15.2328 8.63383 15.5766 9.14822 15.811 9.71434C16.0455 10.2805 16.1662 10.8872 16.1662 11.5C16.1662 12.7375 15.6746 13.9244 14.7996 14.7994C13.9245 15.6745 12.7376 16.1661 11.5001 16.1661C10.2626 16.1661 9.07573 15.6745 8.20066 14.7994C7.32559 13.9244 6.83398 12.7375 6.83398 11.5Z" fill="#878787"/>
</g>
<defs>
<clipPath id="clip0_22_329">
<rect width="23" height="23" fill="white"/>
</clipPath>
</defs>
</svg>
