<svg width="16" height="16" viewBox="0 0 16 16" fill="none" xmlns="http://www.w3.org/2000/svg">
<g clip-path="url(#clip0_15_686)">
<path fill-rule="evenodd" clip-rule="evenodd" d="M8.17585 0.864014C4.31985 0.864014 1.21585 3.98401 1.21585 7.82401C1.21585 9.13601 1.58385 10.368 2.20785 11.424L0.943848 15.168L4.79985 13.92C5.79185 14.464 6.94385 14.784 8.15985 14.784C11.9998 14.784 15.1198 11.664 15.1198 7.82401C15.1358 3.98401 12.0158 0.864014 8.17585 0.864014ZM8.17585 13.632C6.99185 13.632 5.90385 13.28 4.99185 12.672L2.76785 13.392L3.48785 11.232C2.79985 10.272 2.38385 9.10401 2.38385 7.84001C2.38385 4.64001 4.97585 2.04801 8.17585 2.04801C11.3758 2.04801 13.9678 4.65601 13.9678 7.84001C13.9678 11.024 11.3598 13.632 8.17585 13.632ZM11.4398 9.40801C11.2638 9.31201 10.4158 8.84801 10.2398 8.78401C10.0798 8.72001 9.96785 8.68801 9.83985 8.86401C9.71185 9.04001 9.35985 9.42401 9.24785 9.53601C9.13585 9.64801 9.03985 9.66401 8.86385 9.56801C8.68785 9.47201 8.12785 9.26401 7.47185 8.64001C6.95985 8.14401 6.62385 7.55201 6.52785 7.37601C6.43185 7.20001 6.52785 7.10401 6.62385 7.02401C6.70385 6.94401 6.81585 6.81601 6.89585 6.72001C6.99185 6.62401 7.02385 6.54401 7.08785 6.43201C7.15185 6.32001 7.11985 6.20801 7.08785 6.12801C7.03985 6.01601 6.71985 5.12001 6.57585 4.76801C6.44785 4.40001 6.28785 4.46401 6.19185 4.46401C6.09585 4.46401 5.96785 4.44801 5.85585 4.43201C5.74385 4.43201 5.53585 4.46401 5.37585 4.64001C5.19985 4.81601 4.73585 5.23201 4.70385 6.09601C4.67185 6.97601 5.27985 7.84001 5.35985 7.96801C5.43985 8.09601 6.51185 9.98401 8.28785 10.768C10.0638 11.536 10.0798 11.296 10.3998 11.28C10.7198 11.264 11.4718 10.896 11.6318 10.48C11.7918 10.064 11.8078 9.71201 11.7598 9.63201C11.7278 9.55201 11.6158 9.50401 11.4398 9.40801Z" fill="#7C52BF"/>
</g>
<defs>
<clipPath id="clip0_15_686">
<rect width="16" height="16" fill="white"/>
</clipPath>
</defs>
</svg>
