<svg width="19" height="19" viewBox="0 0 19 19" fill="none" xmlns="http://www.w3.org/2000/svg">
<path fill-rule="evenodd" clip-rule="evenodd" d="M6.85586 3.57517C6.36123 4.25624 6.25337 5.01568 6.38534 5.41845C6.45342 5.62618 6.34021 5.84978 6.13244 5.91787C5.92471 5.98595 5.7011 5.8727 5.63306 5.66497C5.39987 4.95334 5.61861 3.93154 6.21533 3.10995C6.83065 2.26272 7.87458 1.58337 9.35615 1.58337C10.8616 1.58337 11.9838 2.20168 12.6716 3.02153C13.3448 3.82401 13.6218 4.85284 13.3629 5.66228C13.2963 5.87053 13.0735 5.98532 12.8653 5.91874C12.6571 5.85212 12.5422 5.62935 12.6089 5.42114C12.7632 4.9385 12.6152 4.18606 12.0651 3.53032C11.5296 2.89195 10.6304 2.37504 9.35615 2.37504C8.14402 2.37504 7.33189 2.91975 6.85586 3.57517Z" fill="#7C52BF"/>
<path fill-rule="evenodd" clip-rule="evenodd" d="M7.52083 2.375C7.73945 2.375 7.91667 2.55222 7.91667 2.77083V4.35417C7.91667 4.57279 7.73945 4.75 7.52083 4.75C7.30221 4.75 7.125 4.57279 7.125 4.35417V2.77083C7.125 2.55222 7.30221 2.375 7.52083 2.375Z" fill="#7C52BF"/>
<path fill-rule="evenodd" clip-rule="evenodd" d="M9.49984 1.58337C9.71846 1.58337 9.89567 1.7606 9.89567 1.97921V3.56254C9.89567 3.78115 9.71846 3.95837 9.49984 3.95837C9.28122 3.95837 9.104 3.78115 9.104 3.56254V1.97921C9.104 1.7606 9.28122 1.58337 9.49984 1.58337Z" fill="#7C52BF"/>
<path fill-rule="evenodd" clip-rule="evenodd" d="M7.17464 11.7279C7.08427 11.5427 6.88014 11.4427 6.68111 11.4916C4.54199 12.0173 2.375 13.0891 2.375 14.7016V16.6251V17.4167H3.16667H15.8333H16.625V16.6251V14.7016C16.625 13.0891 14.458 12.0173 12.3189 11.4916C12.1199 11.4427 11.9157 11.5427 11.8254 11.7279H10.2167C9.86488 11.728 9.68576 11.728 9.50982 11.728C9.3273 11.7279 9.14818 11.7279 8.78327 11.728L7.17464 11.7279ZM10.2168 12.5196C10.2167 12.5196 10.2169 12.5196 10.2168 12.5196C9.86282 12.5197 9.68446 12.5197 9.5095 12.5197C9.32813 12.5196 9.15016 12.5196 8.78346 12.5197L7.17456 12.5196L6.68 12.5195L6.58888 12.3328C5.66964 12.5808 4.80257 12.926 4.16266 13.3493C3.44083 13.8268 3.16667 14.2895 3.16667 14.7016V16.6251H15.8333V14.7016C15.8333 14.2895 15.5592 13.8268 14.8373 13.3493C14.1974 12.926 13.3304 12.5808 12.4111 12.3328L12.32 12.5196H11.8254H10.2168Z" fill="#7C52BF"/>
<path d="M6.3335 13.8542C6.3335 13.6356 6.51071 13.4584 6.72933 13.4584C6.94795 13.4584 7.12516 13.6356 7.12516 13.8542V16.625C7.12516 16.8437 6.94795 17.0209 6.72933 17.0209C6.51071 17.0209 6.3335 16.8437 6.3335 16.625V13.8542Z" fill="#7C52BF"/>
<path d="M11.875 13.8542C11.875 13.6356 12.0522 13.4584 12.2708 13.4584C12.4895 13.4584 12.6667 13.6356 12.6667 13.8542V16.625C12.6667 16.8437 12.4895 17.0209 12.2708 17.0209C12.0522 17.0209 11.875 16.8437 11.875 16.625V13.8542Z" fill="#7C52BF"/>
<path fill-rule="evenodd" clip-rule="evenodd" d="M11.4793 2.375C11.6979 2.375 11.8752 2.55222 11.8752 2.77083V4.35417C11.8752 4.57279 11.6979 4.75 11.4793 4.75C11.2607 4.75 11.0835 4.57279 11.0835 4.35417V2.77083C11.0835 2.55222 11.2607 2.375 11.4793 2.375Z" fill="#7C52BF"/>
<path fill-rule="evenodd" clip-rule="evenodd" d="M4.97514 6.24015C4.905 5.74144 5.19926 5.27269 5.6747 4.8501L6.20064 5.44179C5.78541 5.81086 5.74571 6.03483 5.75909 6.12987C5.7731 6.2295 5.87297 6.39381 6.22823 6.57427C6.92272 6.92704 8.18222 7.12511 9.50015 7.12511C10.8181 7.12511 12.0776 6.92704 12.7721 6.57427C13.1274 6.39381 13.2272 6.2295 13.2412 6.12987C13.2546 6.03483 13.2149 5.81086 12.7997 5.44179L13.3256 4.8501C13.801 5.27269 14.0953 5.74144 14.0252 6.24011C13.9557 6.73426 13.5546 7.06475 13.1306 7.28012C12.2665 7.71902 10.8541 7.91678 9.50015 7.91678C8.1462 7.91678 6.73383 7.71902 5.86972 7.28012C5.44571 7.06475 5.04461 6.73426 4.97514 6.24015Z" fill="#7C52BF"/>
<path fill-rule="evenodd" clip-rule="evenodd" d="M6.72917 7.125C6.72917 8.65529 7.96971 9.89583 9.5 9.89583C11.0303 9.89583 12.2708 8.65529 12.2708 7.125H13.0625C13.0625 9.09253 11.4675 10.6875 9.5 10.6875C7.53247 10.6875 5.9375 9.09253 5.9375 7.125H6.72917Z" fill="#7C52BF"/>
</svg>
