<svg width="18" height="21" viewBox="0 0 18 21" fill="none" xmlns="http://www.w3.org/2000/svg">
<g clip-path="url(#clip0_16_245)">
<path d="M17.5179 6.5625C17.783 6.5625 18 6.34102 18 6.07031V4.42969C18 4.15898 17.783 3.9375 17.5179 3.9375H16.7143V1.96875C16.7143 0.881836 15.8504 0 14.7857 0H1.92857C0.863839 0 0 0.881836 0 1.96875V19.0312C0 20.1182 0.863839 21 1.92857 21H14.7857C15.8504 21 16.7143 20.1182 16.7143 19.0312V17.0625H17.5179C17.783 17.0625 18 16.841 18 16.5703V14.9297C18 14.659 17.783 14.4375 17.5179 14.4375H16.7143V11.8125H17.5179C17.783 11.8125 18 11.591 18 11.3203V9.67969C18 9.40898 17.783 9.1875 17.5179 9.1875H16.7143V6.5625H17.5179ZM14.7857 19.0312H1.92857V1.96875H14.7857V19.0312ZM8.35714 10.5C9.77545 10.5 10.9286 9.32285 10.9286 7.875C10.9286 6.42715 9.77545 5.25 8.35714 5.25C6.93884 5.25 5.78571 6.42715 5.78571 7.875C5.78571 9.32285 6.93884 10.5 8.35714 10.5ZM4.75714 15.75H11.9571C12.4554 15.75 12.8571 15.3973 12.8571 14.9625V14.175C12.8571 12.8707 11.6478 11.8125 10.1571 11.8125C9.72321 11.8125 9.4058 12.1406 8.35714 12.1406C7.27634 12.1406 7.01518 11.8125 6.55714 11.8125C5.06652 11.8125 3.85714 12.8707 3.85714 14.175V14.9625C3.85714 15.3973 4.25893 15.75 4.75714 15.75Z" fill="#7C52BF"/>
</g>
<defs>
<clipPath id="clip0_16_245">
<rect width="18" height="21" fill="white"/>
</clipPath>
</defs>
</svg>
