<svg width="23" height="23" viewBox="0 0 23 23" fill="none" xmlns="http://www.w3.org/2000/svg">
<path d="M19.407 5.75H15.8125V5.03125C15.8119 4.45958 15.5845 3.91151 15.1803 3.50727C14.776 3.10304 14.228 2.87565 13.6563 2.875H9.34378C8.77211 2.87565 8.22404 3.10304 7.8198 3.50727C7.41557 3.91151 7.18818 4.45958 7.18753 5.03125V5.75H3.59448C3.21337 5.75044 2.84799 5.90203 2.5785 6.17152C2.30901 6.441 2.15742 6.80639 2.15698 7.1875V18.6875C2.15742 19.0686 2.30901 19.434 2.5785 19.7035C2.84799 19.973 3.21337 20.1246 3.59448 20.125H19.407C19.7881 20.1246 20.1535 19.973 20.423 19.7035C20.6925 19.434 20.844 19.0686 20.8445 18.6875V7.1875C20.844 6.80639 20.6925 6.441 20.423 6.17152C20.1535 5.90203 19.7881 5.75044 19.407 5.75ZM8.62503 5.03125C8.62525 4.84069 8.70104 4.658 8.83579 4.52326C8.97053 4.38851 9.15322 4.31272 9.34378 4.3125H13.6563C13.8468 4.31272 14.0295 4.38851 14.1643 4.52326C14.299 4.658 14.3748 4.84069 14.375 5.03125V5.75H8.62503V5.03125ZM19.407 7.1875L19.4073 10.9255C16.981 12.2463 14.2625 12.938 11.5 12.9375C8.73823 12.938 6.0203 12.2466 3.59448 10.9264V7.1875H19.407ZM19.407 18.6875H3.59448V12.5455C6.0559 13.7496 8.75989 14.3753 11.5 14.375C14.2409 14.3753 16.9455 13.7493 19.4074 12.5446L19.4079 18.6875L19.407 18.6875ZM9.70316 10.7812C9.70316 10.5906 9.77889 10.4078 9.91368 10.273C10.0485 10.1382 10.2313 10.0625 10.4219 10.0625H12.5782C12.7688 10.0625 12.9516 10.1382 13.0864 10.273C13.2212 10.4078 13.2969 10.5906 13.2969 10.7812C13.2969 10.9719 13.2212 11.1547 13.0864 11.2895C12.9516 11.4243 12.7688 11.5 12.5782 11.5H10.4219C10.2313 11.5 10.0485 11.4243 9.91368 11.2895C9.77889 11.1547 9.70316 10.9719 9.70316 10.7812Z" fill="#7C52BF"/>
</svg>
