<svg width="18" height="18" viewBox="0 0 18 18" fill="none" xmlns="http://www.w3.org/2000/svg">
<path d="M16.8165 15.2437L13.6524 7.57969C13.594 7.43815 13.4948 7.31715 13.3676 7.232C13.2403 7.14686 13.0906 7.10141 12.9375 7.10141C12.7844 7.10141 12.6347 7.14686 12.5074 7.232C12.3802 7.31715 12.281 7.43815 12.2226 7.57969L9.05852 15.2437C9.01918 15.3377 8.99879 15.4386 8.99854 15.5405C8.99828 15.6424 9.01816 15.7433 9.05703 15.8375C9.0959 15.9317 9.153 16.0172 9.22504 16.0893C9.29708 16.1613 9.38265 16.2184 9.47683 16.2573C9.57101 16.2962 9.67195 16.3161 9.77384 16.3158C9.87573 16.3156 9.97656 16.2952 10.0706 16.2559C10.1645 16.2166 10.2498 16.159 10.3215 16.0866C10.3932 16.0142 10.4499 15.9284 10.4883 15.834L11.1327 14.2734H14.7422L15.3867 15.834C15.4451 15.9756 15.5442 16.0967 15.6715 16.1819C15.7988 16.2671 15.9486 16.3125 16.1017 16.3125C16.2288 16.3124 16.3539 16.281 16.466 16.2211C16.5781 16.1612 16.6737 16.0745 16.7443 15.9689C16.8149 15.8632 16.8584 15.7418 16.8709 15.6153C16.8835 15.4888 16.8646 15.3612 16.8161 15.2437H16.8165ZM11.7715 12.7266L12.9377 9.90176L14.1038 12.7266H11.7715Z" fill="#7C52BF"/>
<path d="M9.41625 12.0558C9.53641 11.8898 9.58579 11.6829 9.55356 11.4806C9.52133 11.2782 9.41012 11.0969 9.24434 10.9765C9.2373 10.9712 8.71699 10.5852 7.96148 9.75551C9.35543 7.86832 10.145 5.72133 10.4671 4.71094H11.6016C11.8067 4.71094 12.0034 4.62945 12.1485 4.4844C12.2935 4.33936 12.375 4.14263 12.375 3.9375C12.375 3.73237 12.2935 3.53564 12.1485 3.3906C12.0034 3.24555 11.8067 3.16406 11.6016 3.16406H7.52344V2.46094C7.52344 2.25581 7.44195 2.05908 7.2969 1.91403C7.15186 1.76899 6.95513 1.6875 6.75 1.6875C6.54487 1.6875 6.34814 1.76899 6.2031 1.91403C6.05805 2.05908 5.97656 2.25581 5.97656 2.46094V3.16406H1.89844C1.69331 3.16406 1.49658 3.24555 1.35153 3.3906C1.20649 3.53564 1.125 3.73237 1.125 3.9375C1.125 4.14263 1.20649 4.33936 1.35153 4.4844C1.49658 4.62945 1.69331 4.71094 1.89844 4.71094H8.83301C8.49832 5.6584 7.88203 7.1543 6.94195 8.52047C5.8377 7.05516 5.42742 6.10699 5.42426 6.09926C5.34342 5.91243 5.19218 5.76501 5.00335 5.68897C4.81453 5.61292 4.60333 5.61439 4.41558 5.69304C4.22782 5.7717 4.07864 5.9212 4.0004 6.10913C3.92216 6.29706 3.92116 6.50825 3.99762 6.69691C4.01801 6.74543 4.50914 7.90031 5.85598 9.64758C5.88832 9.68941 5.92031 9.7302 5.9523 9.77098C4.57277 11.3302 3.21926 12.2973 2.65289 12.6095C2.4728 12.7077 2.3391 12.8735 2.28121 13.0703C2.22333 13.2671 2.24599 13.4788 2.34422 13.6589C2.44245 13.839 2.60819 13.9727 2.805 14.0306C3.0018 14.0885 3.21354 14.0658 3.39363 13.9676C3.46957 13.9261 5.10223 13.0222 6.96656 10.9586C7.75828 11.8051 8.3025 12.2045 8.3352 12.2277C8.41746 12.2874 8.5107 12.3304 8.60958 12.3541C8.70846 12.3778 8.81103 12.3817 8.91144 12.3657C9.01185 12.3497 9.10812 12.3141 9.19474 12.2608C9.28136 12.2076 9.35663 12.1378 9.41625 12.0554V12.0558Z" fill="#7C52BF"/>
</svg>
