<svg width="21" height="21" viewBox="0 0 21 21" fill="none" xmlns="http://www.w3.org/2000/svg">
<path d="M10.5 11.375C10.2336 11.3719 9.97265 11.4505 9.75226 11.6001C9.53187 11.7498 9.36263 11.9634 9.26731 12.2122C9.17199 12.461 9.15518 12.733 9.21913 12.9916C9.28308 13.2502 9.42473 13.4831 9.625 13.6587V14.875C9.625 15.1071 9.71719 15.3296 9.88128 15.4937C10.0454 15.6578 10.2679 15.75 10.5 15.75C10.7321 15.75 10.9546 15.6578 11.1187 15.4937C11.2828 15.3296 11.375 15.1071 11.375 14.875V13.6587C11.5753 13.4831 11.7169 13.2502 11.7809 12.9916C11.8448 12.733 11.828 12.461 11.7327 12.2122C11.6374 11.9634 11.4681 11.7498 11.2477 11.6001C11.0273 11.4505 10.7664 11.3719 10.5 11.375ZM14.875 7.875V6.125C14.875 4.96468 14.4141 3.85188 13.5936 3.03141C12.7731 2.21094 11.6603 1.75 10.5 1.75C9.33968 1.75 8.22688 2.21094 7.40641 3.03141C6.58594 3.85188 6.125 4.96468 6.125 6.125V7.875C5.42881 7.875 4.76113 8.15156 4.26884 8.64384C3.77656 9.13613 3.5 9.80381 3.5 10.5V16.625C3.5 17.3212 3.77656 17.9889 4.26884 18.4812C4.76113 18.9734 5.42881 19.25 6.125 19.25H14.875C15.5712 19.25 16.2389 18.9734 16.7312 18.4812C17.2234 17.9889 17.5 17.3212 17.5 16.625V10.5C17.5 9.80381 17.2234 9.13613 16.7312 8.64384C16.2389 8.15156 15.5712 7.875 14.875 7.875ZM7.875 6.125C7.875 5.42881 8.15156 4.76113 8.64384 4.26884C9.13613 3.77656 9.80381 3.5 10.5 3.5C11.1962 3.5 11.8639 3.77656 12.3562 4.26884C12.8484 4.76113 13.125 5.42881 13.125 6.125V7.875H7.875V6.125ZM15.75 16.625C15.75 16.8571 15.6578 17.0796 15.4937 17.2437C15.3296 17.4078 15.1071 17.5 14.875 17.5H6.125C5.89294 17.5 5.67038 17.4078 5.50628 17.2437C5.34219 17.0796 5.25 16.8571 5.25 16.625V10.5C5.25 10.2679 5.34219 10.0454 5.50628 9.88128C5.67038 9.71719 5.89294 9.625 6.125 9.625H14.875C15.1071 9.625 15.3296 9.71719 15.4937 9.88128C15.6578 10.0454 15.75 10.2679 15.75 10.5V16.625Z" fill="#7C52BF"/>
</svg>
