<svg width="21" height="22" viewBox="0 0 21 22" fill="none" xmlns="http://www.w3.org/2000/svg">
<g clip-path="url(#clip0_16_156)">
<path fill-rule="evenodd" clip-rule="evenodd" d="M14 8.24999C14 10.275 12.433 11.9167 10.5 11.9167C8.567 11.9167 7 10.275 7 8.24999C7 6.22495 8.567 4.58333 10.5 4.58333C12.433 4.58333 14 6.22495 14 8.24999ZM12.25 8.24999C12.25 9.26255 11.4665 10.0833 10.5 10.0833C9.53347 10.0833 8.75 9.26255 8.75 8.24999C8.75 7.23747 9.53347 6.41666 10.5 6.41666C11.4665 6.41666 12.25 7.23747 12.25 8.24999Z" fill="#7C52BF"/>
<path fill-rule="evenodd" clip-rule="evenodd" d="M10.5 0.916672C5.18426 0.916672 0.875 5.43114 0.875 11C0.875 16.5688 5.18426 21.0833 10.5 21.0833C15.8157 21.0833 20.125 16.5688 20.125 11C20.125 5.43114 15.8157 0.916672 10.5 0.916672ZM2.625 11C2.625 12.916 3.24848 14.6795 4.29448 16.0799C5.73339 14.1065 8.00299 12.8333 10.5564 12.8333C13.0767 12.8333 15.3205 14.0737 16.7619 16.0034C17.7739 14.6156 18.375 12.8814 18.375 11C18.375 6.44366 14.8493 2.75001 10.5 2.75001C6.15076 2.75001 2.625 6.44366 2.625 11ZM10.5 19.25C8.61855 19.25 6.89119 18.5587 5.53671 17.4055C6.64433 15.7494 8.47968 14.6667 10.5564 14.6667C12.6073 14.6667 14.4229 15.7228 15.5346 17.3442C14.1697 18.5342 12.4146 19.25 10.5 19.25Z" fill="#7C52BF"/>
</g>
<defs>
<clipPath id="clip0_16_156">
<rect width="21" height="22" fill="white"/>
</clipPath>
</defs>
</svg>
