<?xml version="1.0" encoding="utf-8"?>
<!-- Generator: Adobe Illustrator 27.3.1, SVG Export Plug-In . SVG Version: 6.00 Build 0)  -->
<svg version="1.1" id="Layer_1" xmlns="http://www.w3.org/2000/svg" xmlns:xlink="http://www.w3.org/1999/xlink" x="0px" y="0px"
	 viewBox="0 0 24 24" style="enable-background:new 0 0 24 24;" xml:space="preserve">
<style type="text/css">
	.st0{fill:#7C52BF;}
</style>
<path class="st0" d="M12,2C6.5,2,2,6.5,2,12v0.7V16v0.1c0,1,0.9,1.9,2,1.9h1c0.6,0,1-0.4,1-1v-5.1c0-0.6-0.4-1-1-1H4.1
	C4.6,7,8,4,12,4s7.4,3,7.9,6.9H19c-0.6,0-1,0.4-1,1V16v1v1c0,1.1-0.9,2-2,2h-2v-1h-4v3h2h2h2c2.2,0,4-1.8,4-4c1.1,0,2-0.8,2-1.9V16
	v-3.3V12C22,6.5,17.5,2,12,2z"/>
</svg>
